# xmcd
#
# Track frame offsets:
#	150
#	13265
#	32658
#	50916
#	66135
#	96128
#	100786
#	125027
#	143291
#	152031
#	184574
#	223288
#	240129
#	255221
#	291386
#
# Disc length: 4320 seconds
#
# Revision: 0
# Processed by: cddbd v1.5.1PL0 Copyright (c) Steve Scherf et al.
# Submitted via: dBpowerAMP V4.0
#
DISCID=cf10de0f
DTITLE=Roland and Dirk Roofthooft - Brick Blues
DYEAR=2002
DGENRE=Blues
TTITLE0=Harteklop
TTITLE1=Wayward Wind
TTITLE2=5 to 4 bricks and all that jazz
TTITLE3=Ken ik u niet van ergens?
TTITLE4=Vast in Boom
TTITLE5=Missisipi-Slide Boom-Loop
TTITLE6=Diga diga down
TTITLE7=Brick Blues
TTITLE8=Florff
TTITLE9=Ik en de mol
TTITLE10=Verdwaalde vlinders
TTITLE11=Mole in the ground
TTITLE12=Ain't gonna pick no more cotton
TTITLE13=Sixteen tons
TTITLE14=Nature morte
EXTD=
EXTT0=
EXTT1=
EXTT2=
EXTT3=
EXTT4=
EXTT5=
EXTT6=
EXTT7=
EXTT8=
EXTT9=
EXTT10=
EXTT11=
EXTT12=
EXTT13=
EXTT14=
PLAYORDER=
